<mxfile host="app.diagrams.net" modified="2022-03-02T18:40:05.860Z" agent="5.0 (Windows NT 10.0; Win64; x64) AppleWebKit/537.36 (KHTML, like Gecko) Chrome/98.0.4758.102 Safari/537.36" etag="L9-_DWTtxyTuyYJG4_Oz" version="16.6.4" type="github">
  <diagram id="FVTB6eCvjAsudvaujAqm" name="Page-1">
    <mxGraphModel dx="898" dy="481" grid="1" gridSize="10" guides="1" tooltips="1" connect="1" arrows="1" fold="1" page="1" pageScale="1" pageWidth="1100" pageHeight="850" math="0" shadow="0">
      <root>
        <mxCell id="0" />
        <mxCell id="1" parent="0" />
        <mxCell id="izwD1ermn6o2qZZVHTIV-5" style="edgeStyle=orthogonalEdgeStyle;rounded=0;orthogonalLoop=1;jettySize=auto;html=1;entryX=0;entryY=0.5;entryDx=0;entryDy=0;entryPerimeter=0;" parent="1" source="izwD1ermn6o2qZZVHTIV-1" target="izwD1ermn6o2qZZVHTIV-3" edge="1">
          <mxGeometry relative="1" as="geometry" />
        </mxCell>
        <mxCell id="izwD1ermn6o2qZZVHTIV-1" value="Linux Ops Station&lt;br&gt;&lt;br&gt;10.50.X.X / 192.168.65.20&lt;br&gt;student / password" style="verticalLabelPosition=bottom;html=1;verticalAlign=top;align=center;strokeColor=none;fillColor=#00BEF2;shape=mxgraph.azure.computer;pointerEvents=1;" parent="1" vertex="1">
          <mxGeometry x="61" y="200" width="50" height="45" as="geometry" />
        </mxCell>
        <mxCell id="izwD1ermn6o2qZZVHTIV-4" style="edgeStyle=orthogonalEdgeStyle;rounded=0;orthogonalLoop=1;jettySize=auto;html=1;entryX=0;entryY=0.5;entryDx=0;entryDy=0;entryPerimeter=0;" parent="1" source="izwD1ermn6o2qZZVHTIV-2" target="izwD1ermn6o2qZZVHTIV-3" edge="1">
          <mxGeometry relative="1" as="geometry" />
        </mxCell>
        <mxCell id="izwD1ermn6o2qZZVHTIV-2" value="Windows Ops Station&lt;br&gt;&lt;br&gt;10.50.X.X / 192.168.65.10&lt;br&gt;student / password" style="verticalLabelPosition=bottom;html=1;verticalAlign=top;align=center;strokeColor=none;fillColor=#00BEF2;shape=mxgraph.azure.computer;pointerEvents=1;" parent="1" vertex="1">
          <mxGeometry x="61" y="40" width="50" height="45" as="geometry" />
        </mxCell>
        <mxCell id="izwD1ermn6o2qZZVHTIV-11" style="edgeStyle=orthogonalEdgeStyle;rounded=0;orthogonalLoop=1;jettySize=auto;html=1;entryX=0;entryY=0.5;entryDx=0;entryDy=0;" parent="1" source="izwD1ermn6o2qZZVHTIV-3" target="izwD1ermn6o2qZZVHTIV-7" edge="1">
          <mxGeometry relative="1" as="geometry" />
        </mxCell>
        <mxCell id="izwD1ermn6o2qZZVHTIV-21" style="edgeStyle=orthogonalEdgeStyle;rounded=0;orthogonalLoop=1;jettySize=auto;html=1;entryX=0;entryY=0.5;entryDx=0;entryDy=0;" parent="1" source="izwD1ermn6o2qZZVHTIV-3" target="izwD1ermn6o2qZZVHTIV-17" edge="1">
          <mxGeometry relative="1" as="geometry" />
        </mxCell>
        <mxCell id="Btwf9wJzvGTKdZfy2Qqx-1" value="Text" style="edgeLabel;html=1;align=center;verticalAlign=middle;resizable=0;points=[];" parent="izwD1ermn6o2qZZVHTIV-21" vertex="1" connectable="0">
          <mxGeometry x="0.5338" y="-1" relative="1" as="geometry">
            <mxPoint as="offset" />
          </mxGeometry>
        </mxCell>
        <mxCell id="izwD1ermn6o2qZZVHTIV-3" value="Grey Host (lin)&lt;br&gt;&lt;br&gt;10.50.X.X&lt;br&gt;student / (15 char password)" style="verticalLabelPosition=bottom;html=1;verticalAlign=top;align=center;strokeColor=#666666;fillColor=#f5f5f5;shape=mxgraph.azure.computer;pointerEvents=1;fontColor=#333333;" parent="1" vertex="1">
          <mxGeometry x="281" y="120" width="50" height="45" as="geometry" />
        </mxCell>
        <mxCell id="izwD1ermn6o2qZZVHTIV-6" value="" style="verticalLabelPosition=bottom;html=1;verticalAlign=top;align=center;strokeColor=#b85450;fillColor=#f8cecc;shape=mxgraph.azure.computer;pointerEvents=1;" parent="1" vertex="1">
          <mxGeometry x="556" y="200" width="50" height="45" as="geometry" />
        </mxCell>
        <mxCell id="izwD1ermn6o2qZZVHTIV-22" style="edgeStyle=orthogonalEdgeStyle;rounded=0;orthogonalLoop=1;jettySize=auto;html=1;entryX=0.5;entryY=0;entryDx=0;entryDy=0;entryPerimeter=0;" parent="1" source="izwD1ermn6o2qZZVHTIV-7" target="izwD1ermn6o2qZZVHTIV-6" edge="1">
          <mxGeometry relative="1" as="geometry" />
        </mxCell>
        <mxCell id="izwD1ermn6o2qZZVHTIV-23" style="edgeStyle=orthogonalEdgeStyle;rounded=0;orthogonalLoop=1;jettySize=auto;html=1;" parent="1" source="izwD1ermn6o2qZZVHTIV-7" target="izwD1ermn6o2qZZVHTIV-10" edge="1">
          <mxGeometry relative="1" as="geometry" />
        </mxCell>
        <mxCell id="izwD1ermn6o2qZZVHTIV-24" style="edgeStyle=orthogonalEdgeStyle;rounded=0;orthogonalLoop=1;jettySize=auto;html=1;" parent="1" source="izwD1ermn6o2qZZVHTIV-7" target="izwD1ermn6o2qZZVHTIV-9" edge="1">
          <mxGeometry relative="1" as="geometry" />
        </mxCell>
        <mxCell id="izwD1ermn6o2qZZVHTIV-25" style="edgeStyle=orthogonalEdgeStyle;rounded=0;orthogonalLoop=1;jettySize=auto;html=1;" parent="1" source="izwD1ermn6o2qZZVHTIV-7" target="izwD1ermn6o2qZZVHTIV-8" edge="1">
          <mxGeometry relative="1" as="geometry" />
        </mxCell>
        <mxCell id="izwD1ermn6o2qZZVHTIV-7" value="" style="image;html=1;image=img/lib/clip_art/computers/Network_128x128.png;fillColor=#f8cecc;strokeColor=#b85450;" parent="1" vertex="1">
          <mxGeometry x="466" y="102.5" width="80" height="80" as="geometry" />
        </mxCell>
        <mxCell id="izwD1ermn6o2qZZVHTIV-8" value="" style="verticalLabelPosition=bottom;html=1;verticalAlign=top;align=center;strokeColor=#b85450;fillColor=#f8cecc;shape=mxgraph.azure.computer;pointerEvents=1;" parent="1" vertex="1">
          <mxGeometry x="796" y="200" width="50" height="45" as="geometry" />
        </mxCell>
        <mxCell id="izwD1ermn6o2qZZVHTIV-9" value="" style="verticalLabelPosition=bottom;html=1;verticalAlign=top;align=center;strokeColor=#b85450;fillColor=#f8cecc;shape=mxgraph.azure.computer;pointerEvents=1;" parent="1" vertex="1">
          <mxGeometry x="716" y="200" width="50" height="45" as="geometry" />
        </mxCell>
        <mxCell id="izwD1ermn6o2qZZVHTIV-10" value="" style="verticalLabelPosition=bottom;html=1;verticalAlign=top;align=center;strokeColor=#b85450;fillColor=#f8cecc;shape=mxgraph.azure.computer;pointerEvents=1;" parent="1" vertex="1">
          <mxGeometry x="636" y="200" width="50" height="45" as="geometry" />
        </mxCell>
        <mxCell id="izwD1ermn6o2qZZVHTIV-16" value="" style="verticalLabelPosition=bottom;html=1;verticalAlign=top;align=center;strokeColor=#b85450;fillColor=#f8cecc;shape=mxgraph.azure.computer;pointerEvents=1;" parent="1" vertex="1">
          <mxGeometry x="556" y="457.5" width="50" height="45" as="geometry" />
        </mxCell>
        <mxCell id="izwD1ermn6o2qZZVHTIV-26" style="edgeStyle=orthogonalEdgeStyle;rounded=0;orthogonalLoop=1;jettySize=auto;html=1;" parent="1" source="izwD1ermn6o2qZZVHTIV-17" target="izwD1ermn6o2qZZVHTIV-16" edge="1">
          <mxGeometry relative="1" as="geometry" />
        </mxCell>
        <mxCell id="izwD1ermn6o2qZZVHTIV-27" style="edgeStyle=orthogonalEdgeStyle;rounded=0;orthogonalLoop=1;jettySize=auto;html=1;" parent="1" source="izwD1ermn6o2qZZVHTIV-17" target="izwD1ermn6o2qZZVHTIV-20" edge="1">
          <mxGeometry relative="1" as="geometry" />
        </mxCell>
        <mxCell id="izwD1ermn6o2qZZVHTIV-29" style="edgeStyle=orthogonalEdgeStyle;rounded=0;orthogonalLoop=1;jettySize=auto;html=1;entryX=0.5;entryY=0;entryDx=0;entryDy=0;entryPerimeter=0;" parent="1" source="izwD1ermn6o2qZZVHTIV-17" target="izwD1ermn6o2qZZVHTIV-19" edge="1">
          <mxGeometry relative="1" as="geometry" />
        </mxCell>
        <mxCell id="izwD1ermn6o2qZZVHTIV-30" style="edgeStyle=orthogonalEdgeStyle;rounded=0;orthogonalLoop=1;jettySize=auto;html=1;entryX=0.5;entryY=0;entryDx=0;entryDy=0;entryPerimeter=0;" parent="1" source="izwD1ermn6o2qZZVHTIV-17" target="izwD1ermn6o2qZZVHTIV-18" edge="1">
          <mxGeometry relative="1" as="geometry" />
        </mxCell>
        <mxCell id="izwD1ermn6o2qZZVHTIV-17" value="" style="image;html=1;image=img/lib/clip_art/computers/Network_128x128.png;fillColor=#f8cecc;strokeColor=#b85450;" parent="1" vertex="1">
          <mxGeometry x="466" y="360" width="80" height="80" as="geometry" />
        </mxCell>
        <mxCell id="izwD1ermn6o2qZZVHTIV-18" value="" style="verticalLabelPosition=bottom;html=1;verticalAlign=top;align=center;strokeColor=#b85450;fillColor=#f8cecc;shape=mxgraph.azure.computer;pointerEvents=1;" parent="1" vertex="1">
          <mxGeometry x="796" y="457.5" width="50" height="45" as="geometry" />
        </mxCell>
        <mxCell id="izwD1ermn6o2qZZVHTIV-19" value="" style="verticalLabelPosition=bottom;html=1;verticalAlign=top;align=center;strokeColor=#b85450;fillColor=#f8cecc;shape=mxgraph.azure.computer;pointerEvents=1;" parent="1" vertex="1">
          <mxGeometry x="716" y="457.5" width="50" height="45" as="geometry" />
        </mxCell>
        <mxCell id="izwD1ermn6o2qZZVHTIV-20" value="" style="verticalLabelPosition=bottom;html=1;verticalAlign=top;align=center;strokeColor=#b85450;fillColor=#f8cecc;shape=mxgraph.azure.computer;pointerEvents=1;" parent="1" vertex="1">
          <mxGeometry x="636" y="457.5" width="50" height="45" as="geometry" />
        </mxCell>
        <mxCell id="a8j4Nl5_mCWLMUD-GGag-2" value="IP: 192.168.28.105&lt;br&gt;Ports: 21" style="text;html=1;align=center;verticalAlign=middle;resizable=0;points=[];autosize=1;strokeColor=none;fillColor=none;" parent="1" vertex="1">
          <mxGeometry x="521" y="260" width="120" height="30" as="geometry" />
        </mxCell>
        <mxCell id="a8j4Nl5_mCWLMUD-GGag-3" value="Net: 192.168.28.96/27" style="text;html=1;align=center;verticalAlign=middle;resizable=0;points=[];autosize=1;strokeColor=none;fillColor=none;" parent="1" vertex="1">
          <mxGeometry x="466" y="70" width="130" height="20" as="geometry" />
        </mxCell>
      </root>
    </mxGraphModel>
  </diagram>
</mxfile>
